<svg id="Layer_1" data-name="Layer 1" xmlns="http://www.w3.org/2000/svg" xmlns:xlink="http://www.w3.org/1999/xlink" viewBox="0 0 126.04 113.29"><defs><style>.cls-1{fill:url(#linear-gradient);}.cls-2{fill:url(#linear-gradient-2);}.cls-3{fill:url(#linear-gradient-3);}.cls-4{fill:url(#linear-gradient-4);}.cls-5{fill:url(#linear-gradient-5);}.cls-6{fill:#b7a9aa;}</style><linearGradient id="linear-gradient" x1="31.05" y1="30.06" x2="94.94" y2="30.06" gradientUnits="userSpaceOnUse"><stop offset="0" stop-color="#d1c8c7"/><stop offset="0.5" stop-color="#dedbd9"/><stop offset="1" stop-color="#b4a6a7"/></linearGradient><linearGradient id="linear-gradient-2" x1="11.96" y1="91.95" x2="74.98" y2="91.95" gradientUnits="userSpaceOnUse"><stop offset="0" stop-color="#7d141d"/><stop offset="1" stop-color="#ff1e27"/></linearGradient><linearGradient id="linear-gradient-3" x1="63.02" y1="88.79" x2="83.75" y2="88.79" gradientUnits="userSpaceOnUse"><stop offset="0" stop-color="red"/><stop offset="1" stop-color="#fcee21"/></linearGradient><linearGradient id="linear-gradient-4" x1="74.98" y1="91.95" x2="138" y2="91.95" gradientUnits="userSpaceOnUse"><stop offset="0" stop-color="#ff1e27"/><stop offset="1" stop-color="#7d141d"/></linearGradient><linearGradient id="linear-gradient-5" x1="42.29" y1="88.79" x2="63.02" y2="88.79" gradientUnits="userSpaceOnUse"><stop offset="0" stop-color="#fcee21"/><stop offset="1" stop-color="red"/></linearGradient></defs><polygon class="cls-1" points="94.94 0 31.05 0 63 60.12 94.94 0"/><path class="cls-2" d="M53.17,126.8a6.39,6.39,0,0,1-.34-6.85l1.42-2.5-24.69-.13,26-44.43L67.6,94.06,75,81.12,61.13,56.84a6.38,6.38,0,0,0-11.45.68c0,.07-.11.13-.15.21L13.2,119.91a6.31,6.31,0,0,0,.05,7.58l.13.17a6.31,6.31,0,0,0,.66.71c.1.1.21.18.31.27a6,6,0,0,0,.65.47c.06,0,.11.09.18.13s.23.1.34.15a5.29,5.29,0,0,0,.54.25,7.41,7.41,0,0,0,.8.25l.31.07a5.33,5.33,0,0,0,1.12.12h.59l38.88.2A6.34,6.34,0,0,1,53.17,126.8Z" transform="translate(-11.96 -17)"/><polygon class="cls-3" points="69.03 100.53 83.75 100.45 70.4 77.06 63.02 90 69.03 100.53"/><path class="cls-4" d="M136.76,119.91,100.43,57.73c0-.07-.11-.14-.15-.21a6.38,6.38,0,0,0-11.45-.68L75,81.12l7.38,12.94L94.44,72.89l26,44.43-24.69.13,1.42,2.5a7.49,7.49,0,0,1-4.93,10.34l38.88-.2h.59a5.33,5.33,0,0,0,1.12-.12l.31-.07a7.41,7.41,0,0,0,.8-.25,5.29,5.29,0,0,0,.54-.25c.11,0,.23-.09.34-.15s.12-.09.18-.13a6,6,0,0,0,.65-.47c.1-.09.21-.17.31-.27a6.31,6.31,0,0,0,.66-.71l.13-.17a6.31,6.31,0,0,0,0-7.58Z" transform="translate(-11.96 -17)"/><polygon class="cls-5" points="55.64 77.06 42.29 100.45 57.01 100.53 63.02 90 55.64 77.06"/><path class="cls-6" d="M56.83,122.38h-1v3.23a.62.62,0,0,1-.13.42.41.41,0,0,1-.32.13.44.44,0,0,1-.33-.13.62.62,0,0,1-.12-.42v-3.23H54a.46.46,0,0,1-.34-.11.34.34,0,0,1-.12-.27.33.33,0,0,1,.12-.27.49.49,0,0,1,.34-.1h2.87a.49.49,0,0,1,.35.1.36.36,0,0,1,0,.54A.51.51,0,0,1,56.83,122.38Z" transform="translate(-11.96 -17)"/><path class="cls-6" d="M59.05,124.18h-.32v1.43a.57.57,0,0,1-.13.42.41.41,0,0,1-.32.13.44.44,0,0,1-.34-.13.64.64,0,0,1-.12-.42v-3.43a.62.62,0,0,1,.14-.43.59.59,0,0,1,.42-.12h1.47a4,4,0,0,1,.52,0,2.22,2.22,0,0,1,.39.1,1.37,1.37,0,0,1,.37.26,1,1,0,0,1,.24.38,1.22,1.22,0,0,1,.09.46,1.16,1.16,0,0,1-.28.8,1.62,1.62,0,0,1-.86.42,1.79,1.79,0,0,1,.46.38,3.28,3.28,0,0,1,.39.53,3.22,3.22,0,0,1,.27.51.92.92,0,0,1,.1.31.32.32,0,0,1-.06.18.47.47,0,0,1-.15.13.43.43,0,0,1-.23,0,.41.41,0,0,1-.25-.07.52.52,0,0,1-.18-.18c-.05-.07-.12-.18-.2-.32l-.37-.6a3.15,3.15,0,0,0-.35-.51,1,1,0,0,0-.31-.24A1.07,1.07,0,0,0,59.05,124.18Zm.51-1.88h-.83v1.23h.81a2.87,2.87,0,0,0,.55,0,.6.6,0,0,0,.33-.2.53.53,0,0,0,.12-.37.63.63,0,0,0-.09-.33.57.57,0,0,0-.26-.2A1.72,1.72,0,0,0,59.56,122.3Z" transform="translate(-11.96 -17)"/><path class="cls-6" d="M62.16,124.24V122.1a.59.59,0,0,1,.13-.41.42.42,0,0,1,.32-.14.42.42,0,0,1,.33.14.55.55,0,0,1,.13.41v2.19a2.25,2.25,0,0,0,.08.63.78.78,0,0,0,.3.39,1.11,1.11,0,0,0,.6.13.86.86,0,0,0,.74-.28,1.35,1.35,0,0,0,.22-.85V122.1a.55.55,0,0,1,.13-.41.4.4,0,0,1,.32-.14.42.42,0,0,1,.33.14.55.55,0,0,1,.13.41v2.14a3.47,3.47,0,0,1-.1.87,1.45,1.45,0,0,1-.39.63,1.59,1.59,0,0,1-.57.32,2.39,2.39,0,0,1-.75.1,3,3,0,0,1-.89-.11,1.41,1.41,0,0,1-.6-.34,1.42,1.42,0,0,1-.35-.6A3.12,3.12,0,0,1,62.16,124.24Z" transform="translate(-11.96 -17)"/><path class="cls-6" d="M70.29,124.75a1.32,1.32,0,0,1-.21.73,1.45,1.45,0,0,1-.61.5,2.35,2.35,0,0,1-1,.18,2.23,2.23,0,0,1-1.09-.24,1.5,1.5,0,0,1-.49-.48,1.08,1.08,0,0,1-.19-.59.41.41,0,0,1,.11-.28.39.39,0,0,1,.29-.11.36.36,0,0,1,.25.08.79.79,0,0,1,.17.28,1.51,1.51,0,0,0,.18.36.72.72,0,0,0,.28.23,1,1,0,0,0,.47.09,1.07,1.07,0,0,0,.65-.18.56.56,0,0,0,.25-.47.48.48,0,0,0-.13-.36,1,1,0,0,0-.35-.22l-.58-.15a3.92,3.92,0,0,1-.8-.27,1.15,1.15,0,0,1-.51-.4,1.07,1.07,0,0,1-.2-.65,1.08,1.08,0,0,1,.21-.66,1.25,1.25,0,0,1,.58-.43,2.21,2.21,0,0,1,.89-.16,2.13,2.13,0,0,1,.71.1,1.58,1.58,0,0,1,.5.27,1.18,1.18,0,0,1,.29.36.8.8,0,0,1,.09.36.42.42,0,0,1-.12.29.37.37,0,0,1-.28.13.32.32,0,0,1-.23-.08.9.9,0,0,1-.18-.25,1.25,1.25,0,0,0-.29-.4.89.89,0,0,0-.55-.14,1,1,0,0,0-.57.15.47.47,0,0,0-.21.38.45.45,0,0,0,.07.23.74.74,0,0,0,.21.17l.25.11.44.11c.25.06.47.12.68.19a2.1,2.1,0,0,1,.52.26,1.16,1.16,0,0,1,.46,1Z" transform="translate(-11.96 -17)"/><path class="cls-6" d="M74,122.38H73v3.23a.62.62,0,0,1-.12.42.41.41,0,0,1-.32.13.42.42,0,0,1-.33-.13.62.62,0,0,1-.13-.42v-3.23h-1a.51.51,0,0,1-.35-.11.37.37,0,0,1-.11-.27.33.33,0,0,1,.12-.27.48.48,0,0,1,.34-.1H74a.5.5,0,0,1,.35.1.33.33,0,0,1,.11.27.37.37,0,0,1-.11.27A.51.51,0,0,1,74,122.38Z" transform="translate(-11.96 -17)"/><path class="cls-6" d="M78,125.42l-.71-2.85v3.08a.57.57,0,0,1-.12.39.35.35,0,0,1-.3.12.37.37,0,0,1-.3-.12.6.6,0,0,1-.11-.39v-3.53a.43.43,0,0,1,.15-.39.71.71,0,0,1,.41-.1h.28a1.14,1.14,0,0,1,.37,0,.35.35,0,0,1,.17.17c0,.07.07.21.12.38l.65,2.44.65-2.44a2.49,2.49,0,0,1,.12-.38.31.31,0,0,1,.17-.17,1.14,1.14,0,0,1,.37,0h.28a.71.71,0,0,1,.41.1.43.43,0,0,1,.15.39v3.53a.62.62,0,0,1-.11.39.38.38,0,0,1-.31.12.34.34,0,0,1-.29-.12.57.57,0,0,1-.12-.39v-3.08l-.72,2.85a3.29,3.29,0,0,1-.11.4.54.54,0,0,1-.16.24.48.48,0,0,1-.33.1.45.45,0,0,1-.27-.07.46.46,0,0,1-.17-.17,1.6,1.6,0,0,1-.1-.23A2.68,2.68,0,0,0,78,125.42Z" transform="translate(-11.96 -17)"/><path class="cls-6" d="M84.64,122.33h-2v1.09h1.88a.48.48,0,0,1,.31.09.3.3,0,0,1,.1.25.33.33,0,0,1-.1.25.46.46,0,0,1-.31.09H82.6v1.27h2.11a.44.44,0,0,1,.32.1.35.35,0,0,1,.11.27A.34.34,0,0,1,85,126a.44.44,0,0,1-.32.1H82.25a.51.51,0,0,1-.42-.14.54.54,0,0,1-.13-.42v-3.35a.73.73,0,0,1,.06-.32.39.39,0,0,1,.18-.18.69.69,0,0,1,.31-.05h2.39a.49.49,0,0,1,.32.09.33.33,0,0,1,.11.25.35.35,0,0,1-.11.26A.49.49,0,0,1,84.64,122.33Z" transform="translate(-11.96 -17)"/><path class="cls-6" d="M86.42,121.63h1.17a3.56,3.56,0,0,1,.79.08,1.59,1.59,0,0,1,.6.32,2.28,2.28,0,0,1,.7,1.82,4,4,0,0,1-.07.73,2.25,2.25,0,0,1-.22.6,1.87,1.87,0,0,1-.37.47,1.31,1.31,0,0,1-.4.26,1.65,1.65,0,0,1-.46.14,3,3,0,0,1-.55,0H86.43a.9.9,0,0,1-.37-.07.4.4,0,0,1-.16-.22,1.09,1.09,0,0,1,0-.34v-3.28a.67.67,0,0,1,.13-.43A.63.63,0,0,1,86.42,121.63Zm.35.71v3h1a1.31,1.31,0,0,0,.27-.06.72.72,0,0,0,.24-.14,1.66,1.66,0,0,0,.45-1.32,2,2,0,0,0-.2-1,.89.89,0,0,0-.49-.42,2.45,2.45,0,0,0-.71-.09Z" transform="translate(-11.96 -17)"/><path class="cls-6" d="M90.51,125.61V122.1a.59.59,0,0,1,.12-.41.42.42,0,0,1,.32-.14.46.46,0,0,1,.34.14.59.59,0,0,1,.12.41v3.51a.62.62,0,0,1-.12.42.45.45,0,0,1-.34.13.42.42,0,0,1-.32-.13A.62.62,0,0,1,90.51,125.61Z" transform="translate(-11.96 -17)"/><path class="cls-6" d="M95.28,125.58l-.22-.56H93.25l-.21.58a2.32,2.32,0,0,1-.22.45.32.32,0,0,1-.29.11.4.4,0,0,1-.3-.12.38.38,0,0,1-.13-.28.75.75,0,0,1,0-.2l.1-.26,1.14-2.9.12-.3a1.57,1.57,0,0,1,.15-.29.61.61,0,0,1,.2-.19.62.62,0,0,1,.31-.07.63.63,0,0,1,.32.07.7.7,0,0,1,.2.18,1.19,1.19,0,0,1,.13.25c0,.08.08.2.14.34l1.16,2.88a1.29,1.29,0,0,1,.14.48.35.35,0,0,1-.13.28.4.4,0,0,1-.31.13.48.48,0,0,1-.18,0,.47.47,0,0,1-.13-.11,1.11,1.11,0,0,1-.11-.2A2.08,2.08,0,0,1,95.28,125.58Zm-1.79-1.23h1.33l-.67-1.85Z" transform="translate(-11.96 -17)"/></svg>