<svg id="Layer_1" data-name="Layer 1" xmlns="http://www.w3.org/2000/svg" xmlns:xlink="http://www.w3.org/1999/xlink" viewBox="0 0 481.42 113.29"><defs><style>.cls-1{fill:url(#linear-gradient);}.cls-2{fill:url(#linear-gradient-2);}.cls-3{fill:url(#linear-gradient-3);}.cls-4{fill:url(#linear-gradient-4);}.cls-5{fill:url(#linear-gradient-5);}.cls-6{fill:#b7a9aa;}.cls-7{fill:url(#linear-gradient-6);}.cls-8{fill:url(#linear-gradient-7);}</style><linearGradient id="linear-gradient" x1="31.05" y1="30.06" x2="94.94" y2="30.06" gradientUnits="userSpaceOnUse"><stop offset="0" stop-color="#d1c8c7"/><stop offset="0.5" stop-color="#dedbd9"/><stop offset="1" stop-color="#b4a6a7"/></linearGradient><linearGradient id="linear-gradient-2" x1="11.96" y1="91.95" x2="74.98" y2="91.95" gradientUnits="userSpaceOnUse"><stop offset="0" stop-color="#7d141d"/><stop offset="1" stop-color="#ff1e27"/></linearGradient><linearGradient id="linear-gradient-3" x1="63.02" y1="88.79" x2="83.75" y2="88.79" gradientUnits="userSpaceOnUse"><stop offset="0" stop-color="red"/><stop offset="1" stop-color="#fcee21"/></linearGradient><linearGradient id="linear-gradient-4" x1="74.98" y1="91.95" x2="138" y2="91.95" gradientUnits="userSpaceOnUse"><stop offset="0" stop-color="#ff1e27"/><stop offset="1" stop-color="#7d141d"/></linearGradient><linearGradient id="linear-gradient-5" x1="42.29" y1="88.79" x2="63.02" y2="88.79" gradientUnits="userSpaceOnUse"><stop offset="0" stop-color="#fcee21"/><stop offset="1" stop-color="red"/></linearGradient><linearGradient id="linear-gradient-6" x1="147.16" y1="77.16" x2="184.67" y2="77.16" xlink:href="#linear-gradient-2"/><linearGradient id="linear-gradient-7" x1="320.57" y1="77.16" x2="363.14" y2="77.16" xlink:href="#linear-gradient-2"/></defs><polygon class="cls-1" points="94.94 0 31.05 0 63 60.12 94.94 0"/><path class="cls-2" d="M53.17,126.8a6.39,6.39,0,0,1-.34-6.85l1.42-2.5-24.69-.13,26-44.43L67.6,94.06,75,81.12,61.13,56.84a6.38,6.38,0,0,0-11.45.68c0,.07-.11.13-.15.21L13.2,119.91a6.31,6.31,0,0,0,.05,7.58l.13.17a6.31,6.31,0,0,0,.66.71c.1.1.21.18.31.27a6,6,0,0,0,.65.47c.06,0,.11.09.18.13s.23.1.34.15a5.29,5.29,0,0,0,.54.25,7.41,7.41,0,0,0,.8.25l.31.07a5.33,5.33,0,0,0,1.12.12h.59l38.88.2A6.34,6.34,0,0,1,53.17,126.8Z" transform="translate(-11.96 -17)"/><polygon class="cls-3" points="69.03 100.53 83.75 100.45 70.4 77.06 63.02 90 69.03 100.53"/><path class="cls-4" d="M136.76,119.91,100.43,57.73c0-.07-.11-.14-.15-.21a6.38,6.38,0,0,0-11.45-.68L75,81.12l7.38,12.94L94.44,72.89l26,44.43-24.69.13,1.42,2.5a7.49,7.49,0,0,1-4.93,10.34l38.88-.2h.59a5.33,5.33,0,0,0,1.12-.12l.31-.07a7.41,7.41,0,0,0,.8-.25,5.29,5.29,0,0,0,.54-.25c.11,0,.23-.09.34-.15s.12-.09.18-.13a6,6,0,0,0,.65-.47c.1-.09.21-.17.31-.27a6.31,6.31,0,0,0,.66-.71l.13-.17a6.31,6.31,0,0,0,0-7.58Z" transform="translate(-11.96 -17)"/><polygon class="cls-5" points="55.64 77.06 42.29 100.45 57.01 100.53 63.02 90 55.64 77.06"/><path class="cls-6" d="M56.83,122.38h-1v3.23a.62.62,0,0,1-.13.42.41.41,0,0,1-.32.13.44.44,0,0,1-.33-.13.62.62,0,0,1-.12-.42v-3.23H54a.46.46,0,0,1-.34-.11.34.34,0,0,1-.12-.27.33.33,0,0,1,.12-.27.49.49,0,0,1,.34-.1h2.87a.49.49,0,0,1,.35.1.36.36,0,0,1,0,.54A.51.51,0,0,1,56.83,122.38Z" transform="translate(-11.96 -17)"/><path class="cls-6" d="M59.05,124.18h-.32v1.43a.57.57,0,0,1-.13.42.41.41,0,0,1-.32.13.44.44,0,0,1-.34-.13.64.64,0,0,1-.12-.42v-3.43a.62.62,0,0,1,.14-.43.59.59,0,0,1,.42-.12h1.47a4,4,0,0,1,.52,0,2.22,2.22,0,0,1,.39.1,1.37,1.37,0,0,1,.37.26,1,1,0,0,1,.24.38,1.22,1.22,0,0,1,.09.46,1.16,1.16,0,0,1-.28.8,1.62,1.62,0,0,1-.86.42,1.79,1.79,0,0,1,.46.38,3.28,3.28,0,0,1,.39.53,3.22,3.22,0,0,1,.27.51.92.92,0,0,1,.1.31.32.32,0,0,1-.06.18.47.47,0,0,1-.15.13.43.43,0,0,1-.23,0,.41.41,0,0,1-.25-.07.52.52,0,0,1-.18-.18c-.05-.07-.12-.18-.2-.32l-.37-.6a3.15,3.15,0,0,0-.35-.51,1,1,0,0,0-.31-.24A1.07,1.07,0,0,0,59.05,124.18Zm.51-1.88h-.83v1.23h.81a2.87,2.87,0,0,0,.55,0,.6.6,0,0,0,.33-.2.53.53,0,0,0,.12-.37.63.63,0,0,0-.09-.33.57.57,0,0,0-.26-.2A1.72,1.72,0,0,0,59.56,122.3Z" transform="translate(-11.96 -17)"/><path class="cls-6" d="M62.16,124.24V122.1a.59.59,0,0,1,.13-.41.42.42,0,0,1,.32-.14.42.42,0,0,1,.33.14.55.55,0,0,1,.13.41v2.19a2.25,2.25,0,0,0,.08.63.78.78,0,0,0,.3.39,1.11,1.11,0,0,0,.6.13.86.86,0,0,0,.74-.28,1.35,1.35,0,0,0,.22-.85V122.1a.55.55,0,0,1,.13-.41.4.4,0,0,1,.32-.14.42.42,0,0,1,.33.14.55.55,0,0,1,.13.41v2.14a3.47,3.47,0,0,1-.1.87,1.45,1.45,0,0,1-.39.63,1.59,1.59,0,0,1-.57.32,2.39,2.39,0,0,1-.75.1,3,3,0,0,1-.89-.11,1.41,1.41,0,0,1-.6-.34,1.42,1.42,0,0,1-.35-.6A3.12,3.12,0,0,1,62.16,124.24Z" transform="translate(-11.96 -17)"/><path class="cls-6" d="M70.29,124.75a1.32,1.32,0,0,1-.21.73,1.45,1.45,0,0,1-.61.5,2.35,2.35,0,0,1-1,.18,2.23,2.23,0,0,1-1.09-.24,1.5,1.5,0,0,1-.49-.48,1.08,1.08,0,0,1-.19-.59.41.41,0,0,1,.11-.28.39.39,0,0,1,.29-.11.36.36,0,0,1,.25.08.79.79,0,0,1,.17.28,1.51,1.51,0,0,0,.18.36.72.72,0,0,0,.28.23,1,1,0,0,0,.47.09,1.07,1.07,0,0,0,.65-.18.56.56,0,0,0,.25-.47.48.48,0,0,0-.13-.36,1,1,0,0,0-.35-.22l-.58-.15a3.92,3.92,0,0,1-.8-.27,1.15,1.15,0,0,1-.51-.4,1.07,1.07,0,0,1-.2-.65,1.08,1.08,0,0,1,.21-.66,1.25,1.25,0,0,1,.58-.43,2.21,2.21,0,0,1,.89-.16,2.13,2.13,0,0,1,.71.1,1.58,1.58,0,0,1,.5.27,1.18,1.18,0,0,1,.29.36.8.8,0,0,1,.09.36.42.42,0,0,1-.12.29.37.37,0,0,1-.28.13.32.32,0,0,1-.23-.08.9.9,0,0,1-.18-.25,1.25,1.25,0,0,0-.29-.4.89.89,0,0,0-.55-.14,1,1,0,0,0-.57.15.47.47,0,0,0-.21.38.45.45,0,0,0,.07.23.74.74,0,0,0,.21.17l.25.11.44.11c.25.06.47.12.68.19a2.1,2.1,0,0,1,.52.26,1.16,1.16,0,0,1,.46,1Z" transform="translate(-11.96 -17)"/><path class="cls-6" d="M74,122.38H73v3.23a.62.62,0,0,1-.12.42.41.41,0,0,1-.32.13.42.42,0,0,1-.33-.13.62.62,0,0,1-.13-.42v-3.23h-1a.51.51,0,0,1-.35-.11.37.37,0,0,1-.11-.27.33.33,0,0,1,.12-.27.48.48,0,0,1,.34-.1H74a.5.5,0,0,1,.35.1.33.33,0,0,1,.11.27.37.37,0,0,1-.11.27A.51.51,0,0,1,74,122.38Z" transform="translate(-11.96 -17)"/><path class="cls-6" d="M78,125.42l-.71-2.85v3.08a.57.57,0,0,1-.12.39.35.35,0,0,1-.3.12.37.37,0,0,1-.3-.12.6.6,0,0,1-.11-.39v-3.53a.43.43,0,0,1,.15-.39.71.71,0,0,1,.41-.1h.28a1.14,1.14,0,0,1,.37,0,.35.35,0,0,1,.17.17c0,.07.07.21.12.38l.65,2.44.65-2.44a2.49,2.49,0,0,1,.12-.38.31.31,0,0,1,.17-.17,1.14,1.14,0,0,1,.37,0h.28a.71.71,0,0,1,.41.1.43.43,0,0,1,.15.39v3.53a.62.62,0,0,1-.11.39.38.38,0,0,1-.31.12.34.34,0,0,1-.29-.12.57.57,0,0,1-.12-.39v-3.08l-.72,2.85a3.29,3.29,0,0,1-.11.4.54.54,0,0,1-.16.24.48.48,0,0,1-.33.1.45.45,0,0,1-.27-.07.46.46,0,0,1-.17-.17,1.6,1.6,0,0,1-.1-.23A2.68,2.68,0,0,0,78,125.42Z" transform="translate(-11.96 -17)"/><path class="cls-6" d="M84.64,122.33h-2v1.09h1.88a.48.48,0,0,1,.31.09.3.3,0,0,1,.1.25.33.33,0,0,1-.1.25.46.46,0,0,1-.31.09H82.6v1.27h2.11a.44.44,0,0,1,.32.1.35.35,0,0,1,.11.27A.34.34,0,0,1,85,126a.44.44,0,0,1-.32.1H82.25a.51.51,0,0,1-.42-.14.54.54,0,0,1-.13-.42v-3.35a.73.73,0,0,1,.06-.32.39.39,0,0,1,.18-.18.69.69,0,0,1,.31-.05h2.39a.49.49,0,0,1,.32.09.33.33,0,0,1,.11.25.35.35,0,0,1-.11.26A.49.49,0,0,1,84.64,122.33Z" transform="translate(-11.96 -17)"/><path class="cls-6" d="M86.42,121.63h1.17a3.56,3.56,0,0,1,.79.08,1.59,1.59,0,0,1,.6.32,2.28,2.28,0,0,1,.7,1.82,4,4,0,0,1-.07.73,2.25,2.25,0,0,1-.22.6,1.87,1.87,0,0,1-.37.47,1.31,1.31,0,0,1-.4.26,1.65,1.65,0,0,1-.46.14,3,3,0,0,1-.55,0H86.43a.9.9,0,0,1-.37-.07.4.4,0,0,1-.16-.22,1.09,1.09,0,0,1,0-.34v-3.28a.67.67,0,0,1,.13-.43A.63.63,0,0,1,86.42,121.63Zm.35.71v3h1a1.31,1.31,0,0,0,.27-.06.72.72,0,0,0,.24-.14,1.66,1.66,0,0,0,.45-1.32,2,2,0,0,0-.2-1,.89.89,0,0,0-.49-.42,2.45,2.45,0,0,0-.71-.09Z" transform="translate(-11.96 -17)"/><path class="cls-6" d="M90.51,125.61V122.1a.59.59,0,0,1,.12-.41.42.42,0,0,1,.32-.14.46.46,0,0,1,.34.14.59.59,0,0,1,.12.41v3.51a.62.62,0,0,1-.12.42.45.45,0,0,1-.34.13.42.42,0,0,1-.32-.13A.62.62,0,0,1,90.51,125.61Z" transform="translate(-11.96 -17)"/><path class="cls-6" d="M95.28,125.58l-.22-.56H93.25l-.21.58a2.32,2.32,0,0,1-.22.45.32.32,0,0,1-.29.11.4.4,0,0,1-.3-.12.38.38,0,0,1-.13-.28.75.75,0,0,1,0-.2l.1-.26,1.14-2.9.12-.3a1.57,1.57,0,0,1,.15-.29.61.61,0,0,1,.2-.19.62.62,0,0,1,.31-.07.63.63,0,0,1,.32.07.7.7,0,0,1,.2.18,1.19,1.19,0,0,1,.13.25c0,.08.08.2.14.34l1.16,2.88a1.29,1.29,0,0,1,.14.48.35.35,0,0,1-.13.28.4.4,0,0,1-.31.13.48.48,0,0,1-.18,0,.47.47,0,0,1-.13-.11,1.11,1.11,0,0,1-.11-.2A2.08,2.08,0,0,1,95.28,125.58Zm-1.79-1.23h1.33l-.67-1.85Z" transform="translate(-11.96 -17)"/><path class="cls-7" d="M180.09,62.09h-9.75V94.15a5.94,5.94,0,0,1-1.23,4.11,4.17,4.17,0,0,1-3.19,1.34,4.21,4.21,0,0,1-3.24-1.36,5.87,5.87,0,0,1-1.25-4.09V62.09h-9.75a4.93,4.93,0,0,1-3.4-1,3.73,3.73,0,0,1,0-5.37,5,5,0,0,1,3.36-1h28.41a5,5,0,0,1,3.45,1,3.44,3.44,0,0,1,1.13,2.68,3.35,3.35,0,0,1-1.15,2.66A5.05,5.05,0,0,1,180.09,62.09Z" transform="translate(-11.96 -17)"/><path class="cls-6" d="M195.2,87.74V94.6A5.32,5.32,0,0,1,194,98.35a3.92,3.92,0,0,1-3,1.25,3.78,3.78,0,0,1-2.92-1.27A5.39,5.39,0,0,1,187,94.6V71.72q0-5.53,4-5.54a3.35,3.35,0,0,1,2.95,1.3,7.16,7.16,0,0,1,1,3.82,14.42,14.42,0,0,1,3-3.82,6.26,6.26,0,0,1,4.14-1.3,10.61,10.61,0,0,1,5,1.3c1.63.86,2.44,2,2.44,3.43a3.27,3.27,0,0,1-1,2.48,3.19,3.19,0,0,1-2.24,1,9.81,9.81,0,0,1-2.18-.56,10.18,10.18,0,0,0-3.06-.55,4.45,4.45,0,0,0-2.95.95A6.08,6.08,0,0,0,196.32,77a19.8,19.8,0,0,0-.88,4.44Q195.2,84,195.2,87.74Z" transform="translate(-11.96 -17)"/><path class="cls-6" d="M233.85,95v-1a18,18,0,0,1-3.1,3.13,11.34,11.34,0,0,1-3.55,1.88,14.41,14.41,0,0,1-4.39.62,11.44,11.44,0,0,1-5.35-1.24,9,9,0,0,1-3.65-3.4c-1-1.75-1.54-4.25-1.54-7.52V71.09a5.35,5.35,0,0,1,1.11-3.69,3.83,3.83,0,0,1,3-1.22,3.91,3.91,0,0,1,3,1.24,5.19,5.19,0,0,1,1.15,3.67V84.25a20.43,20.43,0,0,0,.48,4.8,5.82,5.82,0,0,0,1.73,3,5,5,0,0,0,3.39,1.09A6.9,6.9,0,0,0,230,92a7.23,7.23,0,0,0,2.68-3.22q.69-1.74.69-7.65v-10a5.19,5.19,0,0,1,1.15-3.67,3.88,3.88,0,0,1,3-1.24,3.83,3.83,0,0,1,2.95,1.22,5.35,5.35,0,0,1,1.11,3.69V94.9a5.08,5.08,0,0,1-1.07,3.52,3.53,3.53,0,0,1-2.75,1.18A3.59,3.59,0,0,1,235,98.38,5,5,0,0,1,233.85,95Z" transform="translate(-11.96 -17)"/><path class="cls-6" d="M276.21,88.85a9.56,9.56,0,0,1-6.55,9.5,22,22,0,0,1-7.87,1.25,19.28,19.28,0,0,1-7.59-1.36,11,11,0,0,1-4.66-3.38A6.81,6.81,0,0,1,248,90.78a3.16,3.16,0,0,1,1-2.32,3.33,3.33,0,0,1,2.44-1,2.86,2.86,0,0,1,2,.63,6.9,6.9,0,0,1,1.32,1.77,7.92,7.92,0,0,0,7.83,4.37,7,7,0,0,0,4.05-1.1,3.09,3.09,0,0,0,1.58-2.51,3.42,3.42,0,0,0-1.64-3.16,20.06,20.06,0,0,0-5.41-1.9,44.83,44.83,0,0,1-6.9-2.21A11.24,11.24,0,0,1,250,80.33a7,7,0,0,1-1.6-4.66A8.2,8.2,0,0,1,249.87,71a10.17,10.17,0,0,1,4.35-3.51,16.67,16.67,0,0,1,6.93-1.31,22.9,22.9,0,0,1,5.74.67,14.32,14.32,0,0,1,4.24,1.77,8.81,8.81,0,0,1,2.59,2.47,4.85,4.85,0,0,1,.89,2.65,3.08,3.08,0,0,1-.95,2.32A3.75,3.75,0,0,1,271,77a3.28,3.28,0,0,1-2.15-.72,14.27,14.27,0,0,1-2-2.17,7.58,7.58,0,0,0-2.19-1.93,7,7,0,0,0-3.44-.72,6.73,6.73,0,0,0-3.7,1A2.76,2.76,0,0,0,256,74.73a2.58,2.58,0,0,0,1.08,2.13A9,9,0,0,0,260,78.22q1.83.56,5.06,1.33a26.41,26.41,0,0,1,6.24,2.23,10.44,10.44,0,0,1,3.68,3A6.82,6.82,0,0,1,276.21,88.85Z" transform="translate(-11.96 -17)"/><path class="cls-6" d="M283.61,66.91h.9V62c0-1.32,0-2.36.11-3.12a4.51,4.51,0,0,1,.59-1.94,3.78,3.78,0,0,1,1.38-1.37,3.92,3.92,0,0,1,2-.52,4.09,4.09,0,0,1,2.83,1.17,3.47,3.47,0,0,1,1.06,1.91,16.49,16.49,0,0,1,.23,3.21v5.6h3a3.85,3.85,0,0,1,2.66.82,2.72,2.72,0,0,1,.92,2.13A2.36,2.36,0,0,1,298,72.17a8.34,8.34,0,0,1-3.74.67h-1.54V88a24.33,24.33,0,0,0,.14,3,3,3,0,0,0,.72,1.69,2.48,2.48,0,0,0,1.91.65,10.45,10.45,0,0,0,2-.26,10.21,10.21,0,0,1,1.92-.26,2.48,2.48,0,0,1,1.79.8,2.65,2.65,0,0,1,.8,2,3.29,3.29,0,0,1-2.17,3,14.5,14.5,0,0,1-6.23,1.06,10.8,10.8,0,0,1-5.84-1.3,6,6,0,0,1-2.6-3.58,24.3,24.3,0,0,1-.62-6.11V72.84h-1.08a3.88,3.88,0,0,1-2.71-.85,2.75,2.75,0,0,1-.93-2.13,2.65,2.65,0,0,1,1-2.13A4.29,4.29,0,0,1,283.61,66.91Z" transform="translate(-11.96 -17)"/><path class="cls-8" d="M335.86,92.19l-7.07-28.11V94.54a5.55,5.55,0,0,1-1.13,3.79,4.13,4.13,0,0,1-5.94,0,5.46,5.46,0,0,1-1.15-3.81V59.62c0-1.92.5-3.22,1.51-3.9a7.22,7.22,0,0,1,4.06-1h2.77a10.59,10.59,0,0,1,3.63.45,3,3,0,0,1,1.67,1.62,25.57,25.57,0,0,1,1.23,3.83l6.41,24.17,6.42-24.17a25.57,25.57,0,0,1,1.23-3.83,3,3,0,0,1,1.67-1.62,10.59,10.59,0,0,1,3.63-.45h2.77a7.22,7.22,0,0,1,4.06,1c1,.68,1.51,2,1.51,3.9V94.54A5.55,5.55,0,0,1,362,98.33a3.88,3.88,0,0,1-3,1.27,3.78,3.78,0,0,1-2.92-1.27,5.5,5.5,0,0,1-1.14-3.79V64.08l-7.08,28.11c-.46,1.83-.83,3.17-1.12,4a5.65,5.65,0,0,1-1.61,2.33,4.69,4.69,0,0,1-3.26,1.06,4.89,4.89,0,0,1-2.64-.68,4.82,4.82,0,0,1-1.69-1.73,9.89,9.89,0,0,1-.95-2.33C336.34,94,336.11,93.11,335.86,92.19Z" transform="translate(-11.96 -17)"/><path class="cls-6" d="M394.68,84.91H378.61a10.79,10.79,0,0,0,1.13,4.93,7.58,7.58,0,0,0,6.93,4.31,9.87,9.87,0,0,0,2.7-.35,8.77,8.77,0,0,0,2.36-1.08,18.12,18.12,0,0,0,2.11-1.58c.64-.56,1.47-1.33,2.5-2.29a2.69,2.69,0,0,1,1.8-.54,3,3,0,0,1,2.05.69,2.47,2.47,0,0,1,.78,2,5.34,5.34,0,0,1-.87,2.6,10.25,10.25,0,0,1-2.64,2.86A14.89,14.89,0,0,1,393,98.69a19.12,19.12,0,0,1-6.12.91q-7.92,0-12.32-4.52t-4.39-12.25a20.52,20.52,0,0,1,1.08-6.76,14.93,14.93,0,0,1,3.16-5.34,13.89,13.89,0,0,1,5.12-3.42,18.42,18.42,0,0,1,6.74-1.19,16,16,0,0,1,8.27,2,13.4,13.4,0,0,1,5.16,5.25A13.84,13.84,0,0,1,401.45,80q0,3.11-1.77,4A11.12,11.12,0,0,1,394.68,84.91Zm-16.07-4.67h14.9q-.3-4.21-2.28-6.3a6.77,6.77,0,0,0-5.19-2.1A6.56,6.56,0,0,0,381,74,10.54,10.54,0,0,0,378.61,80.24Z" transform="translate(-11.96 -17)"/><path class="cls-6" d="M430.89,94.9v-.81a20.88,20.88,0,0,1-3.26,3.08,12.14,12.14,0,0,1-3.5,1.81,13.1,13.1,0,0,1-4.1.62,12.17,12.17,0,0,1-5.47-1.25,12.9,12.9,0,0,1-4.35-3.57,16.22,16.22,0,0,1-2.78-5.45,23.27,23.27,0,0,1-.95-6.77q0-7.71,3.76-12a12.53,12.53,0,0,1,9.91-4.31,13.38,13.38,0,0,1,6,1.22,16.93,16.93,0,0,1,4.75,3.75V59.08a6.15,6.15,0,0,1,1-3.82,3.44,3.44,0,0,1,2.88-1.3,3.56,3.56,0,0,1,2.87,1.19,5.32,5.32,0,0,1,1,3.51V94.9a5,5,0,0,1-1.09,3.52,3.84,3.84,0,0,1-5.58,0A5,5,0,0,1,430.89,94.9ZM414.73,82.83a13.9,13.9,0,0,0,1,5.69,8,8,0,0,0,2.84,3.54,7.06,7.06,0,0,0,3.94,1.19,7.28,7.28,0,0,0,4-1.13,7.75,7.75,0,0,0,2.86-3.47,14,14,0,0,0,1.07-5.82,13.61,13.61,0,0,0-1.07-5.64,8.46,8.46,0,0,0-2.89-3.62,6.9,6.9,0,0,0-4-1.24,6.73,6.73,0,0,0-4,1.27,8.26,8.26,0,0,0-2.75,3.68A14.4,14.4,0,0,0,414.73,82.83Z" transform="translate(-11.96 -17)"/><path class="cls-6" d="M451.06,62.36a4.38,4.38,0,0,1-2.94-1,4.12,4.12,0,0,1,0-5.86,4.24,4.24,0,0,1,2.91-1.13,4.33,4.33,0,0,1,2.83,1,3.65,3.65,0,0,1,1.23,3,3.76,3.76,0,0,1-1.2,3A4.13,4.13,0,0,1,451.06,62.36Zm4.06,8.49V94.6A5.3,5.3,0,0,1,454,98.33a3.91,3.91,0,0,1-3,1.27A3.74,3.74,0,0,1,448,98.3a5.46,5.46,0,0,1-1.12-3.7V71.09A5.28,5.28,0,0,1,448,67.42,3.82,3.82,0,0,1,451,66.18a4,4,0,0,1,3,1.24A4.79,4.79,0,0,1,455.12,70.85Z" transform="translate(-11.96 -17)"/><path class="cls-6" d="M484.38,95a25.39,25.39,0,0,1-5.76,3.48,16.19,16.19,0,0,1-6.25,1.16,11.83,11.83,0,0,1-5.55-1.25A9.12,9.12,0,0,1,463.13,95a8.8,8.8,0,0,1-1.3-4.63A8.31,8.31,0,0,1,464,84.58a10.66,10.66,0,0,1,5.87-3.19c.52-.13,1.82-.4,3.89-.82s3.83-.81,5.31-1.16,3.07-.77,4.8-1.28a8.62,8.62,0,0,0-1.31-4.77q-1.15-1.52-4.8-1.52a9.87,9.87,0,0,0-4.71.88,7.57,7.57,0,0,0-2.71,2.61,26.43,26.43,0,0,1-1.6,2.31,2.61,2.61,0,0,1-2,.55,3.5,3.5,0,0,1-2.39-.88,2.92,2.92,0,0,1-1-2.28,6.93,6.93,0,0,1,1.54-4.21,10.93,10.93,0,0,1,4.78-3.37,21.64,21.64,0,0,1,8.1-1.33,23,23,0,0,1,8.52,1.28,8,8,0,0,1,4.38,4,17.79,17.79,0,0,1,1.28,7.35c0,1.92,0,3.56,0,4.9s0,2.84,0,4.49a16.6,16.6,0,0,0,.76,4.83,15.5,15.5,0,0,1,.77,3.23,3,3,0,0,1-1.19,2.31,4,4,0,0,1-2.69,1,3.65,3.65,0,0,1-2.5-1.19A17.44,17.44,0,0,1,484.38,95Zm-.54-11.89a41.93,41.93,0,0,1-5.25,1.4q-3.45.73-4.77,1.08a6.6,6.6,0,0,0-2.53,1.36,3.45,3.45,0,0,0-1.21,2.81,4.15,4.15,0,0,0,1.42,3.18,5.23,5.23,0,0,0,3.7,1.31,9.64,9.64,0,0,0,4.5-1.07,7.22,7.22,0,0,0,3-2.75q1.11-1.87,1.11-6.14Z" transform="translate(-11.96 -17)"/></svg>